<svg width="13" height="60" viewBox="0 0 13 60" fill="none" xmlns="http://www.w3.org/2000/svg">
<path d="M6.66601 59.0813L9.55276 54.0813L3.77926 54.0813L6.66601 59.0813ZM6.16602 3.99379C6.16602 4.26993 6.38987 4.49379 6.66602 4.49379C6.94216 4.49379 7.16602 4.26993 7.16602 3.99379L6.16602 3.99379ZM7.16601 11.3388C7.16601 11.0626 6.94216 10.8388 6.66601 10.8388C6.38987 10.8388 6.16601 11.0626 6.16601 11.3388L7.16601 11.3388ZM6.16601 18.6838C6.16601 18.9599 6.38987 19.1838 6.66601 19.1838C6.94216 19.1838 7.16601 18.9599 7.16601 18.6838L6.16601 18.6838ZM7.16601 26.0288C7.16601 25.7526 6.94216 25.5288 6.66601 25.5288C6.38987 25.5288 6.16601 25.7526 6.16601 26.0288L7.16601 26.0288ZM6.16601 33.3738C6.16601 33.6499 6.38987 33.8738 6.66601 33.8738C6.94216 33.8738 7.16601 33.6499 7.16601 33.3738L6.16601 33.3738ZM7.16601 40.7188C7.16601 40.4426 6.94215 40.2188 6.66601 40.2188C6.38987 40.2188 6.16601 40.4426 6.16601 40.7188L7.16601 40.7188ZM6.16601 48.0638C6.16601 48.3399 6.38987 48.5638 6.66601 48.5638C6.94215 48.5638 7.16601 48.3399 7.16601 48.0638L6.16601 48.0638ZM7.16601 55.4088C7.16601 55.1326 6.94215 54.9088 6.66601 54.9088C6.38987 54.9088 6.16601 55.1326 6.16601 55.4088L7.16601 55.4088ZM6.16602 0.321289L6.16602 3.99379L7.16602 3.99379L7.16602 0.321289L6.16602 0.321289ZM6.16601 11.3388L6.16601 18.6838L7.16601 18.6838L7.16601 11.3388L6.16601 11.3388ZM6.16601 26.0288L6.16601 33.3738L7.16601 33.3738L7.16601 26.0288L6.16601 26.0288ZM6.16601 40.7188L6.16601 48.0638L7.16601 48.0638L7.16601 40.7188L6.16601 40.7188ZM6.66601 59.0813L12.4395 49.0813L0.892509 49.0813L6.66601 59.0813ZM5.66602 3.99379C5.66602 4.54607 6.11373 4.99379 6.66602 4.99379C7.2183 4.99379 7.66602 4.54607 7.66602 3.99379L5.66602 3.99379ZM7.66601 11.3388C7.66601 10.7865 7.2183 10.3388 6.66601 10.3388C6.11373 10.3388 5.66601 10.7865 5.66601 11.3388L7.66601 11.3388ZM5.66601 18.6838C5.66601 19.2361 6.11373 19.6838 6.66601 19.6838C7.2183 19.6838 7.66601 19.2361 7.66601 18.6838L5.66601 18.6838ZM7.66601 26.0288C7.66601 25.4765 7.2183 25.0288 6.66601 25.0288C6.11373 25.0288 5.66601 25.4765 5.66601 26.0288L7.66601 26.0288ZM5.66601 33.3738C5.66601 33.9261 6.11373 34.3738 6.66601 34.3738C7.2183 34.3738 7.66601 33.9261 7.66601 33.3738L5.66601 33.3738ZM7.66601 40.7188C7.66601 40.1665 7.2183 39.7188 6.66601 39.7188C6.11373 39.7188 5.66601 40.1665 5.66601 40.7188L7.66601 40.7188ZM5.66601 48.0638C5.66601 48.6161 6.11373 49.0638 6.66601 49.0638C7.2183 49.0638 7.66601 48.6161 7.66601 48.0638L5.66601 48.0638ZM7.66601 55.4088C7.66601 54.8565 7.2183 54.4088 6.66601 54.4088C6.11373 54.4088 5.66601 54.8565 5.66601 55.4088L7.66601 55.4088ZM5.66602 0.321289L5.66602 3.99379L7.66602 3.99379L7.66602 0.321289L5.66602 0.321289ZM5.66601 11.3388L5.66601 18.6838L7.66601 18.6838L7.66601 11.3388L5.66601 11.3388ZM5.66601 26.0288L5.66601 33.3738L7.66601 33.3738L7.66601 26.0288L5.66601 26.0288ZM5.66601 40.7188L5.66601 48.0638L7.66601 48.0638L7.66601 40.7188L5.66601 40.7188Z" fill="white"/>
</svg>
