<svg width="30" height="93" viewBox="0 0 30 93" fill="none" xmlns="http://www.w3.org/2000/svg">
<path d="M17.2131 2L17.2131 1.99477e-06L13.2131 -1.99477e-06L13.2131 2L17.2131 2ZM13.7988 92.4142C14.5799 93.1953 15.8462 93.1953 16.6273 92.4142L29.3552 79.6863C30.1362 78.9053 30.1362 77.6389 29.3552 76.8579C28.5741 76.0768 27.3078 76.0768 26.5268 76.8579L15.213 88.1716L3.89935 76.8579C3.1183 76.0768 1.85198 76.0768 1.07093 76.8578C0.289876 77.6389 0.289875 78.9052 1.07092 79.6863L13.7988 92.4142ZM13.2131 6.45C13.2131 7.55457 14.1086 8.45 15.2131 8.45C16.3177 8.45 17.2131 7.55457 17.2131 6.45L13.2131 6.45ZM17.2131 15.35C17.2131 14.2454 16.3177 13.35 15.2131 13.35C14.1086 13.35 13.2131 14.2454 13.2131 15.35L17.2131 15.35ZM13.2131 24.25C13.2131 25.3546 14.1085 26.25 15.2131 26.25C16.3177 26.25 17.2131 25.3546 17.2131 24.25L13.2131 24.25ZM17.2131 33.15C17.2131 32.0454 16.3177 31.15 15.2131 31.15C14.1085 31.15 13.2131 32.0454 13.2131 33.15L17.2131 33.15ZM13.2131 42.05C13.2131 43.1546 14.1085 44.05 15.2131 44.05C16.3177 44.05 17.2131 43.1546 17.2131 42.05L13.2131 42.05ZM17.2131 50.95C17.2131 49.8454 16.3177 48.95 15.2131 48.95C14.1085 48.95 13.2131 49.8454 13.2131 50.95L17.2131 50.95ZM13.2131 59.85C13.2131 60.9546 14.1085 61.85 15.2131 61.85C16.3176 61.85 17.2131 60.9546 17.2131 59.85L13.2131 59.85ZM17.2131 68.75C17.2131 67.6454 16.3176 66.75 15.2131 66.75C14.1085 66.75 13.2131 67.6454 13.2131 68.75L17.2131 68.75ZM13.2131 77.65C13.2131 78.7546 14.1085 79.65 15.2131 79.65C16.3176 79.65 17.2131 78.7546 17.2131 77.65L13.2131 77.65ZM17.2131 86.55C17.2131 85.4454 16.3176 84.55 15.2131 84.55C14.1085 84.55 13.2131 85.4454 13.2131 86.55L17.2131 86.55ZM13.2131 2L13.2131 6.45L17.2131 6.45L17.2131 2L13.2131 2ZM13.2131 15.35L13.2131 24.25L17.2131 24.25L17.2131 15.35L13.2131 15.35ZM13.2131 33.15L13.2131 42.05L17.2131 42.05L17.2131 33.15L13.2131 33.15ZM13.2131 50.95L13.2131 59.85L17.2131 59.85L17.2131 50.95L13.2131 50.95ZM13.2131 68.75L13.2131 77.65L17.2131 77.65L17.2131 68.75L13.2131 68.75ZM13.2131 86.55L13.213 91L17.213 91L17.2131 86.55L13.2131 86.55Z" fill="white"/>
</svg>
